<svg width="732" height="291" viewBox="0 0 732 291" fill="none" xmlns="http://www.w3.org/2000/svg">
<rect width="732" height="291" fill="#042698"/>
<path d="M260.947 199.938C260.35 197.864 259.512 196.031 258.433 194.44C257.353 192.821 256.032 191.457 254.469 190.349C252.935 189.213 251.174 188.347 249.185 187.75C247.225 187.153 245.052 186.855 242.665 186.855C238.205 186.855 234.285 187.963 230.904 190.179C227.552 192.395 224.938 195.619 223.063 199.852C221.188 204.057 220.251 209.199 220.251 215.278C220.251 221.358 221.174 226.528 223.021 230.79C224.867 235.051 227.481 238.304 230.861 240.548C234.242 242.764 238.234 243.872 242.836 243.872C247.012 243.872 250.577 243.134 253.532 241.656C256.515 240.151 258.788 238.034 260.35 235.307C261.941 232.58 262.736 229.355 262.736 225.634L266.486 226.188H243.986V212.295H280.506V223.29C280.506 230.96 278.887 237.551 275.648 243.062C272.41 248.545 267.95 252.778 262.268 255.761C256.586 258.716 250.08 260.193 242.751 260.193C234.569 260.193 227.381 258.389 221.188 254.781C214.995 251.145 210.165 245.989 206.7 239.312C203.262 232.608 201.543 224.653 201.543 215.449C201.543 208.375 202.566 202.068 204.611 196.528C206.685 190.96 209.583 186.244 213.305 182.381C217.026 178.517 221.359 175.577 226.302 173.56C231.245 171.543 236.6 170.534 242.367 170.534C247.31 170.534 251.913 171.259 256.174 172.707C260.435 174.128 264.214 176.145 267.509 178.759C270.833 181.372 273.546 184.483 275.648 188.091C277.751 191.67 279.1 195.619 279.697 199.938H260.947ZM312.69 260.236C308.514 260.236 304.793 259.511 301.526 258.062C298.259 256.585 295.673 254.412 293.77 251.543C291.895 248.645 290.957 245.037 290.957 240.719C290.957 237.082 291.625 234.028 292.96 231.557C294.295 229.085 296.114 227.097 298.415 225.591C300.716 224.085 303.33 222.949 306.256 222.182C309.21 221.415 312.307 220.875 315.545 220.562C319.352 220.165 322.42 219.795 324.75 219.455C327.08 219.085 328.77 218.545 329.821 217.835C330.872 217.125 331.398 216.074 331.398 214.682V214.426C331.398 211.727 330.545 209.639 328.841 208.162C327.165 206.685 324.778 205.946 321.682 205.946C318.415 205.946 315.815 206.67 313.884 208.119C311.952 209.54 310.673 211.33 310.048 213.489L293.259 212.125C294.111 208.148 295.787 204.71 298.287 201.812C300.787 198.886 304.011 196.642 307.96 195.08C311.937 193.489 316.54 192.693 321.767 192.693C325.403 192.693 328.884 193.119 332.207 193.972C335.56 194.824 338.528 196.145 341.114 197.935C343.727 199.724 345.787 202.026 347.293 204.838C348.798 207.622 349.551 210.96 349.551 214.852V259H332.335V249.923H331.824C330.773 251.969 329.366 253.773 327.605 255.335C325.844 256.869 323.727 258.077 321.256 258.957C318.784 259.81 315.929 260.236 312.69 260.236ZM317.889 247.707C320.56 247.707 322.918 247.182 324.963 246.131C327.009 245.051 328.614 243.602 329.778 241.784C330.943 239.966 331.526 237.906 331.526 235.605V228.659C330.957 229.028 330.176 229.369 329.182 229.682C328.216 229.966 327.122 230.236 325.901 230.491C324.679 230.719 323.457 230.932 322.236 231.131C321.014 231.301 319.906 231.457 318.912 231.599C316.781 231.912 314.92 232.409 313.33 233.091C311.739 233.773 310.503 234.696 309.622 235.861C308.741 236.997 308.301 238.418 308.301 240.122C308.301 242.594 309.196 244.483 310.986 245.79C312.804 247.068 315.105 247.707 317.889 247.707ZM363.635 259V193.545H380.936V205.094H381.703C383.067 201.259 385.339 198.233 388.521 196.017C391.703 193.801 395.51 192.693 399.942 192.693C404.43 192.693 408.251 193.815 411.405 196.06C414.558 198.276 416.66 201.287 417.712 205.094H418.393C419.729 201.344 422.143 198.347 425.638 196.102C429.16 193.83 433.322 192.693 438.124 192.693C444.232 192.693 449.189 194.639 452.996 198.531C456.831 202.395 458.749 207.878 458.749 214.98V259H440.638V218.56C440.638 214.923 439.672 212.196 437.74 210.378C435.808 208.56 433.393 207.651 430.496 207.651C427.2 207.651 424.629 208.702 422.783 210.804C420.936 212.878 420.013 215.619 420.013 219.028V259H402.413V218.176C402.413 214.966 401.49 212.409 399.643 210.506C397.825 208.602 395.425 207.651 392.442 207.651C390.425 207.651 388.607 208.162 386.987 209.185C385.396 210.179 384.132 211.585 383.195 213.403C382.257 215.193 381.788 217.295 381.788 219.71V259H363.635ZM502.918 260.278C496.185 260.278 490.389 258.915 485.531 256.188C480.702 253.432 476.98 249.54 474.366 244.511C471.753 239.455 470.446 233.474 470.446 226.571C470.446 219.838 471.753 213.929 474.366 208.844C476.98 203.759 480.659 199.795 485.403 196.955C490.176 194.114 495.773 192.693 502.193 192.693C506.511 192.693 510.531 193.389 514.253 194.781C518.003 196.145 521.27 198.205 524.054 200.96C526.866 203.716 529.054 207.182 530.616 211.358C532.179 215.506 532.96 220.364 532.96 225.932V230.918H477.69V219.668H515.872C515.872 217.054 515.304 214.739 514.168 212.722C513.031 210.705 511.455 209.128 509.438 207.991C507.449 206.827 505.134 206.244 502.491 206.244C499.736 206.244 497.293 206.884 495.162 208.162C493.06 209.412 491.412 211.102 490.219 213.233C489.026 215.335 488.415 217.679 488.386 220.264V230.96C488.386 234.199 488.983 236.997 490.176 239.355C491.398 241.713 493.116 243.531 495.332 244.81C497.548 246.088 500.176 246.727 503.216 246.727C505.233 246.727 507.08 246.443 508.756 245.875C510.432 245.307 511.866 244.455 513.06 243.318C514.253 242.182 515.162 240.79 515.787 239.142L532.577 240.25C531.724 244.284 529.977 247.807 527.335 250.818C524.722 253.801 521.341 256.131 517.193 257.807C513.074 259.455 508.315 260.278 502.918 260.278Z" fill="white"/>
<line x1="43.5058" y1="286.506" x2="690.501" y2="289.023" stroke="white" stroke-width="3" stroke-linecap="round" stroke-dasharray="10 10"/>
<path d="M46.0664 127H24.9464V37H74.6264V55H46.0664V70.96H72.3464V88.96H46.0664V127ZM105.226 53.2V75.28H112.426C118.546 75.28 119.986 69.64 119.986 64.12C119.986 53.44 115.546 52.96 105.226 53.2ZM105.226 91.48V127H84.1064V37H114.946C132.226 37 140.866 43.96 140.866 61.84C140.866 71.44 138.586 78.28 129.706 82.36V82.6C135.586 83.92 139.786 88 140.146 94.24C140.746 101.44 140.866 116.92 142.066 122.68C142.546 123.88 143.146 124.96 144.106 125.8V127H121.066C120.466 125.32 119.986 123.64 119.866 121.84C119.506 113.92 119.986 106.48 119.386 100.96C118.786 95.44 117.106 91.84 112.186 91.48H105.226ZM186.666 100.12V63.16C186.666 57.64 186.186 51.04 179.226 51.04C172.506 51.04 171.666 57.64 171.666 63.16V100.12C171.666 105.28 172.506 112.96 179.346 112.96C186.186 112.96 186.666 105.28 186.666 100.12ZM207.786 61.72V98.32C207.786 118.6 200.706 129.16 179.346 129.16C157.986 129.16 150.546 118.6 150.546 98.32V61.72C150.546 44.44 160.866 34.84 179.346 34.84C197.826 34.84 207.786 44.44 207.786 61.72ZM318.176 66.04H307.256C307.096 62.84 306.376 60.12 305.096 57.88C303.816 55.56 302.136 53.72 300.056 52.36C298.056 51 295.816 50.04 293.336 49.48C290.936 48.84 288.456 48.52 285.896 48.52C283.656 48.52 281.456 48.72 279.296 49.12C277.136 49.52 275.056 50.28 273.056 51.4C271.056 52.44 269.416 53.96 268.136 55.96C266.856 57.96 266.216 60.52 266.216 63.64C266.216 66.92 267.136 69.4 268.976 71.08C270.896 72.68 273.376 73.84 276.416 74.56L301.016 80.2C307.016 81.64 311.776 84.24 315.296 88C318.816 91.68 320.576 96.76 320.576 103.24C320.576 108.04 319.576 112.16 317.576 115.6C315.576 119.04 312.896 121.76 309.536 123.76C306.256 125.68 302.656 127.08 298.736 127.96C294.896 128.84 290.936 129.28 286.856 129.28C283.096 129.28 279.776 129 276.896 128.44C274.016 127.96 271.576 127.32 269.576 126.52C267.656 125.72 266.016 124.88 264.656 124C263.376 123.12 262.096 122.12 260.816 121C257.376 117.96 255.056 114.72 253.856 111.28C252.656 107.76 252.056 103.72 252.056 99.16H262.976C262.976 102.84 263.656 106 265.016 108.64C266.376 111.28 268.216 113.4 270.536 115C272.856 116.52 275.376 117.64 278.096 118.36C280.896 119 283.776 119.32 286.736 119.32C289.216 119.32 291.696 119.12 294.176 118.72C296.736 118.32 299.136 117.6 301.376 116.56C303.696 115.52 305.576 114.04 307.016 112.12C308.536 110.12 309.296 107.68 309.296 104.8C309.296 102.48 308.976 100.56 308.336 99.04C307.776 97.52 306.816 96.2 305.456 95.08C304.096 93.96 302.256 93 299.936 92.2C297.696 91.32 294.696 90.44 290.936 89.56L273.296 85.48C271.376 85 269.416 84.4 267.416 83.68C265.496 82.88 263.576 81.72 261.656 80.2C259.736 78.68 258.136 76.68 256.856 74.2C255.576 71.72 254.936 68.72 254.936 65.2C254.936 61.76 255.496 58.44 256.616 55.24C257.816 52.04 259.616 49.2 262.016 46.72C264.416 44.16 267.496 42.16 271.256 40.72C275.096 39.28 279.536 38.56 284.576 38.56C291.616 38.56 297.376 39.48 301.856 41.32C306.416 43.16 309.816 45.48 312.056 48.28C314.376 51.08 315.936 53.96 316.736 56.92C317.536 59.88 318.016 62.92 318.176 66.04ZM383.455 85.36H373.255C372.615 81.04 371.055 77.72 368.575 75.4C366.095 73.08 362.695 71.92 358.375 71.92C355.255 71.92 352.575 72.6 350.335 73.96C348.095 75.32 346.295 77.12 344.935 79.36C343.575 81.6 342.575 84.12 341.935 86.92C341.375 89.72 341.095 92.6 341.095 95.56C341.095 98.6 341.335 101.52 341.815 104.32C342.295 107.04 343.135 109.6 344.335 112C345.615 114.32 347.375 116.2 349.615 117.64C351.935 119 354.815 119.68 358.255 119.68C361.935 119.68 365.135 118.4 367.855 115.84C370.575 113.2 372.375 109.52 373.255 104.8H383.455C383.135 107.6 382.455 110.36 381.415 113.08C380.455 115.8 378.975 118.36 376.975 120.76C374.975 123.16 372.375 125.12 369.175 126.64C366.055 128.08 362.295 128.8 357.895 128.8C349.255 128.8 342.415 125.88 337.375 120.04C332.335 114.2 329.815 106.64 329.815 97.36C329.815 92.4 330.415 87.84 331.615 83.68C332.815 79.44 334.655 75.72 337.135 72.52C339.695 69.32 342.855 66.84 346.615 65.08C350.455 63.32 354.895 62.44 359.935 62.44C363.855 62.44 367.255 63.08 370.135 64.36C373.095 65.64 375.495 67.4 377.335 69.64C379.255 71.8 380.695 74.24 381.655 76.96C382.615 79.68 383.215 82.48 383.455 85.36ZM390.415 95.56C390.415 91.4 391.015 87.36 392.215 83.44C393.415 79.52 395.215 75.96 397.615 72.76C400.015 69.56 403.055 67.04 406.735 65.2C410.495 63.36 414.775 62.44 419.575 62.44C424.375 62.44 428.615 63.36 432.295 65.2C436.055 67.04 439.135 69.56 441.535 72.76C443.935 75.88 445.735 79.44 446.935 83.44C448.135 87.36 448.735 91.4 448.735 95.56C448.735 99.72 448.135 103.76 446.935 107.68C445.735 111.6 443.935 115.16 441.535 118.36C439.135 121.56 436.055 124.08 432.295 125.92C428.615 127.76 424.375 128.68 419.575 128.68C414.775 128.68 410.495 127.76 406.735 125.92C403.055 124.08 400.015 121.56 397.615 118.36C395.215 115.16 393.415 111.6 392.215 107.68C391.015 103.76 390.415 99.72 390.415 95.56ZM401.335 95.56C401.335 97.96 401.615 100.52 402.175 103.24C402.735 105.96 403.655 108.56 404.935 111.04C406.295 113.52 408.175 115.56 410.575 117.16C412.975 118.76 415.975 119.56 419.575 119.56C423.175 119.56 426.175 118.76 428.575 117.16C430.975 115.56 432.855 113.52 434.215 111.04C435.575 108.56 436.495 105.96 436.975 103.24C437.535 100.52 437.815 97.96 437.815 95.56C437.815 93.16 437.535 90.6 436.975 87.88C436.495 85.16 435.575 82.56 434.215 80.08C432.855 77.6 430.975 75.56 428.575 73.96C426.175 72.36 423.175 71.56 419.575 71.56C415.975 71.56 412.975 72.36 410.575 73.96C408.175 75.56 406.295 77.6 404.935 80.08C403.655 82.56 402.735 85.16 402.175 87.88C401.615 90.6 401.335 93.16 401.335 95.56ZM511.575 127H501.615V117.88L501.375 117.64C499.055 121.48 496.375 124.32 493.335 126.16C490.295 127.92 486.335 128.8 481.455 128.8C478.975 128.8 476.535 128.48 474.135 127.84C471.815 127.2 469.655 126.12 467.655 124.6C465.655 123.08 464.055 121.08 462.855 118.6C461.655 116.04 461.055 112.96 461.055 109.36V64.24H471.615V105.88C471.615 110.76 472.695 114.28 474.855 116.44C477.015 118.6 479.975 119.68 483.735 119.68C486.935 119.68 489.655 119.08 491.895 117.88C494.135 116.6 495.895 114.92 497.175 112.84C498.535 110.76 499.495 108.52 500.055 106.12C500.695 103.72 501.015 101.28 501.015 98.8V64.24H511.575V127ZM550.414 73H540.334V113.8C540.334 115.96 540.934 117.32 542.134 117.88C543.414 118.44 544.934 118.72 546.694 118.72H550.414V127C549.534 127.08 547.934 127.24 545.614 127.48C543.934 127.72 542.894 127.84 542.494 127.84C537.694 127.84 534.374 126.68 532.534 124.36C530.694 121.96 529.774 118.64 529.774 114.4V73H521.254V64.24H529.774V46.72H540.334V64.24H550.414V73ZM571.573 64.24V127H561.013V64.24H571.573ZM571.573 52.84H561.013V40.84H571.573V52.84ZM638.494 84.28V127H627.934V88.36C627.934 82.68 626.934 78.52 624.934 75.88C622.934 73.24 619.454 71.92 614.494 71.92C612.814 71.92 611.014 72.24 609.094 72.88C607.254 73.52 605.454 74.64 603.694 76.24C602.014 77.76 600.614 79.92 599.494 82.72C598.454 85.44 597.934 88.8 597.934 92.8V127H587.374V64.24H597.334V73.12H597.574C598.374 72 599.254 70.88 600.214 69.76C601.254 68.64 602.534 67.52 604.054 66.4C605.654 65.28 607.494 64.36 609.574 63.64C611.654 62.84 613.974 62.44 616.534 62.44C619.254 62.44 621.854 62.76 624.334 63.4C626.894 64.04 629.254 65.2 631.414 66.88C633.574 68.48 635.294 70.72 636.574 73.6C637.854 76.48 638.494 80.04 638.494 84.28ZM661.974 95.44C661.974 102.72 663.414 108.6 666.294 113.08C669.174 117.48 673.374 119.68 678.894 119.68C680.734 119.68 682.654 119.36 684.654 118.72C686.654 118 688.494 116.84 690.174 115.24C691.934 113.64 693.334 111.44 694.374 108.64C695.494 105.84 696.054 102.48 696.054 98.56C696.054 95.44 695.854 92.4 695.454 89.44C695.054 86.48 694.254 83.68 693.054 81.04C691.934 78.32 690.214 76.12 687.894 74.44C685.654 72.76 682.734 71.92 679.134 71.92C675.294 71.92 672.174 72.72 669.774 74.32C667.454 75.84 665.734 77.84 664.614 80.32C663.494 82.72 662.774 85.16 662.454 87.64C662.134 90.12 661.974 92.72 661.974 95.44ZM706.134 64.24V121.84C706.134 125.36 705.894 128.68 705.414 131.8C705.014 135 703.894 138.28 702.054 141.64C700.294 145 697.374 147.8 693.294 150.04C689.214 152.28 683.774 153.4 676.974 153.4C674.654 153.4 672.254 153.16 669.774 152.68C667.374 152.28 664.974 151.4 662.574 150.04C660.174 148.76 658.094 146.84 656.334 144.28C654.574 141.8 653.454 138.6 652.974 134.68H663.534C664.014 137 664.854 138.84 666.054 140.2C667.254 141.64 668.574 142.64 670.014 143.2C671.534 143.84 672.894 144.24 674.094 144.4C675.374 144.56 676.574 144.64 677.694 144.64C681.854 144.64 685.174 143.92 687.654 142.48C690.134 141.12 691.934 139.32 693.054 137.08C694.174 134.92 694.854 132.68 695.094 130.36C695.414 128.12 695.574 125.52 695.574 122.56V119.92C693.974 122.64 691.734 124.8 688.854 126.4C686.054 128 682.654 128.8 678.654 128.8C673.614 128.8 669.294 127.76 665.694 125.68C662.094 123.52 659.214 120.72 657.054 117.28C654.974 113.84 653.454 110.08 652.494 106C651.534 101.92 651.054 97.84 651.054 93.76C651.054 84.64 653.374 77.16 658.014 71.32C662.734 65.4 669.134 62.44 677.214 62.44C679.934 62.44 682.334 62.8 684.414 63.52C686.494 64.24 688.254 65.2 689.694 66.4C691.214 67.52 692.414 68.64 693.294 69.76C694.174 70.8 695.134 72.04 696.174 73.48V64.24H706.134Z" fill="white"/>
<line x1="43.5058" y1="143.506" x2="690.501" y2="146.023" stroke="white" stroke-width="3" stroke-linecap="round" stroke-dasharray="10 10"/>
</svg>
